HIERARCHY
ROOT Hips
{
	OFFSET 0.000000 87.230942 0.000000
	CHANNELS 6 Xposition Yposition Zposition Xrotation Yrotation Zrotation
	JOINT Pelvis
	{
		OFFSET 0.000000 0.000000 0.000000
		CHANNELS 3 Xrotation Yrotation Zrotation
		JOINT LeftUpLeg
		{
			OFFSET 12.017000 -9.376404 -2.439400
			CHANNELS 3 Xrotation Yrotation Zrotation
			JOINT LeftLeg
			{
				OFFSET -0.007312 -32.846973 2.110600
				CHANNELS 3 Xrotation Yrotation Zrotation
				JOINT LeftFoot
				{
					OFFSET 0.007312 -32.065170 -0.570400
					CHANNELS 3 Xrotation Yrotation Zrotation
					JOINT LeftToeBase
					{
						OFFSET 0.728300 -11.045900 13.180700
						CHANNELS 3 Xrotation Yrotation Zrotation
						End Site
						{
							OFFSET 0.000000 17.212589 0.000000
						}
					}
				}
				JOINT LeftPantLeg
				{
					OFFSET 0.002788 -16.709013 -3.143600
					CHANNELS 3 Xrotation Yrotation Zrotation
					End Site
					{
						OFFSET -0.605125 24.528742 0.000000
					}
				}
			}
			JOINT Left_Butt
			{
				OFFSET -6.630234 1.326584 -3.183700
				CHANNELS 3 Xrotation Yrotation Zrotation
				End Site
				{
					OFFSET -0.498041 20.188049 0.000000
				}
			}
		}
		JOINT RightUpLeg
		{
			OFFSET -11.717000 -9.376404 -2.439400
			CHANNELS 3 Xrotation Yrotation Zrotation
			JOINT RightLeg
			{
				OFFSET -0.003241 -32.846912 2.110600
				CHANNELS 3 Xrotation Yrotation Zrotation
				JOINT RightFoot
				{
					OFFSET 0.003241 -32.065136 -0.570500
					CHANNELS 3 Xrotation Yrotation Zrotation
					JOINT RightToeBase
					{
						OFFSET -0.728300 -11.045901 13.180700
						CHANNELS 3 Xrotation Yrotation Zrotation
						End Site
						{
							OFFSET 0.000000 17.212593 0.000000
						}
					}
				}
				JOINT RightPantLeg
				{
					OFFSET 0.008142 -16.708982 -3.143700
					CHANNELS 3 Xrotation Yrotation Zrotation
					End Site
					{
						OFFSET 0.605088 24.528715 0.000000
					}
				}
			}
			JOINT Right_Butt
			{
				OFFSET 6.630732 1.326584 -3.183700
				CHANNELS 3 Xrotation Yrotation Zrotation
				End Site
				{
					OFFSET 0.498015 20.188240 0.000000
				}
			}
		}
	}
	JOINT Spine
	{
		OFFSET -0.062400 7.848404 3.918300
		CHANNELS 3 Xrotation Yrotation Zrotation
		JOINT Spine1
		{
			OFFSET -0.072800 11.422302 0.713400
			CHANNELS 3 Xrotation Yrotation Zrotation
			JOINT Spine2
			{
				OFFSET -0.083200 13.054001 -1.931600
				CHANNELS 3 Xrotation Yrotation Zrotation
				JOINT Neck
				{
					OFFSET -0.092200 14.121796 -5.138800
					CHANNELS 3 Xrotation Yrotation Zrotation
					JOINT Head
					{
						OFFSET 0.000200 10.447403 -0.842000
						CHANNELS 3 Xrotation Yrotation Zrotation
						JOINT Visor
						{
							OFFSET 0.457100 25.671204 16.550400
							CHANNELS 3 Xrotation Yrotation Zrotation
							End Site
							{
								OFFSET 0.000000 26.061493 0.000000
							}
						}
						JOINT HairMidA
						{
							OFFSET 0.459400 31.585403 8.437400
							CHANNELS 3 Xrotation Yrotation Zrotation
							End Site
							{
								OFFSET 0.000000 26.061493 0.000000
							}
						}
						JOINT HairMidB
						{
							OFFSET 0.464000 33.309204 -8.389700
							CHANNELS 3 Xrotation Yrotation Zrotation
							End Site
							{
								OFFSET 0.000000 26.061493 0.000000
							}
						}
						JOINT HairMidC
						{
							OFFSET 0.466600 27.991196 -17.375099
							CHANNELS 3 Xrotation Yrotation Zrotation
							End Site
							{
								OFFSET 0.000000 26.061493 0.000000
							}
						}
						JOINT HairMidD
						{
							OFFSET 0.467700 17.888092 -21.169500
							CHANNELS 3 Xrotation Yrotation Zrotation
							End Site
							{
								OFFSET 0.000000 26.061493 0.000000
							}
						}
						JOINT HairMidE
						{
							OFFSET 5.325700 3.514603 -14.369699
							CHANNELS 3 Xrotation Yrotation Zrotation
							End Site
							{
								OFFSET 0.000000 26.061493 0.000000
							}
						}
						JOINT HairMidF
						{
							OFFSET -4.394100 3.514603 -14.372400
							CHANNELS 3 Xrotation Yrotation Zrotation
							End Site
							{
								OFFSET 0.000000 26.061493 0.000000
							}
						}
						JOINT HairLeftA
						{
							OFFSET 15.319900 25.746506 2.623300
							CHANNELS 3 Xrotation Yrotation Zrotation
							End Site
							{
								OFFSET 0.000000 26.061493 0.000000
							}
						}
						JOINT HairLeftB
						{
							OFFSET 12.619500 29.289398 -8.731499
							CHANNELS 3 Xrotation Yrotation Zrotation
							End Site
							{
								OFFSET 0.000000 26.061493 0.000000
							}
						}
						JOINT HairLeftC
						{
							OFFSET 15.714800 15.959900 2.909800
							CHANNELS 3 Xrotation Yrotation Zrotation
							End Site
							{
								OFFSET 0.000000 26.061493 0.000000
							}
						}
						JOINT HairLeftD
						{
							OFFSET 16.101700 18.437408 -7.553200
							CHANNELS 3 Xrotation Yrotation Zrotation
							End Site
							{
								OFFSET 0.000000 26.061493 0.000000
							}
						}
						JOINT HairLeftE
						{
							OFFSET 9.731900 17.915009 -18.316799
							CHANNELS 3 Xrotation Yrotation Zrotation
							End Site
							{
								OFFSET 0.000000 26.061493 0.000000
							}
						}
						JOINT HairLeftF
						{
							OFFSET 11.204300 4.953598 -9.668100
							CHANNELS 3 Xrotation Yrotation Zrotation
							End Site
							{
								OFFSET 0.000000 26.061493 0.000000
							}
						}
						JOINT HairRightA
						{
							OFFSET -14.397900 25.746307 2.615100
							CHANNELS 3 Xrotation Yrotation Zrotation
							End Site
							{
								OFFSET 0.000000 26.061493 0.000000
							}
						}
						JOINT HairRightB
						{
							OFFSET -11.691200 29.289200 -8.738199
							CHANNELS 3 Xrotation Yrotation Zrotation
							End Site
							{
								OFFSET 0.000000 26.061493 0.000000
							}
						}
						JOINT HairRightC
						{
							OFFSET -14.792900 15.959702 2.901400
							CHANNELS 3 Xrotation Yrotation Zrotation
							End Site
							{
								OFFSET 0.000000 26.061493 0.000000
							}
						}
						JOINT HairRightD
						{
							OFFSET -15.174000 18.437195 -7.561900
							CHANNELS 3 Xrotation Yrotation Zrotation
							End Site
							{
								OFFSET 0.000000 26.061493 0.000000
							}
						}
						JOINT HairRightE
						{
							OFFSET -8.798200 17.914902 -18.322001
							CHANNELS 3 Xrotation Yrotation Zrotation
							End Site
							{
								OFFSET 0.000000 26.061493 0.000000
							}
						}
						JOINT HairRightF
						{
							OFFSET -10.275200 4.953506 -9.674099
							CHANNELS 3 Xrotation Yrotation Zrotation
							End Site
							{
								OFFSET 0.000000 26.061493 0.000000
							}
						}
					}
				}
				JOINT LeftShoulder
				{
					OFFSET 5.133500 7.341202 -1.867600
					CHANNELS 3 Xrotation Yrotation Zrotation
					JOINT LeftArm
					{
						OFFSET 8.072663 0.936867 -2.176600
						CHANNELS 3 Xrotation Yrotation Zrotation
						JOINT LeftForeArm
						{
							OFFSET 31.271999 0.000000 0.000000
							CHANNELS 3 Xrotation Yrotation Zrotation
							JOINT LeftHand
							{
								OFFSET 31.771030 0.000000 0.000000
								CHANNELS 3 Xrotation Yrotation Zrotation
								JOINT LeftHandThumb1
								{
									OFFSET 2.886520 -2.557846 4.416640
									CHANNELS 3 Xrotation Yrotation Zrotation
									JOINT LeftHandThumb2
									{
										OFFSET 2.371025 -1.368912 1.368911
										CHANNELS 3 Xrotation Yrotation Zrotation
										JOINT LeftHandThumb3
										{
											OFFSET 2.243378 -1.295212 1.295213
											CHANNELS 3 Xrotation Yrotation Zrotation
											End Site
											{
												OFFSET -0.332611 2.876945 0.020015
											}
										}
									}
								}
								JOINT LeftHandIndex1
								{
									OFFSET 8.568985 -0.641945 3.119977
									CHANNELS 3 Xrotation Yrotation Zrotation
									JOINT LeftHandIndex2
									{
										OFFSET 3.348503 0.000000 0.000000
										CHANNELS 3 Xrotation Yrotation Zrotation
										JOINT LeftHandIndex3
										{
											OFFSET 3.314552 0.000000 0.000000
											CHANNELS 3 Xrotation Yrotation Zrotation
											End Site
											{
												OFFSET -1.032898 3.075485 0.678796
											}
										}
									}
								}
								JOINT LeftHandMiddle1
								{
									OFFSET 8.124603 0.000000 0.000000
									CHANNELS 3 Xrotation Yrotation Zrotation
									JOINT LeftHandMiddle2
									{
										OFFSET 4.166275 0.000000 0.000000
										CHANNELS 3 Xrotation Yrotation Zrotation
										JOINT LeftHandMiddle3
										{
											OFFSET 3.018135 0.000000 0.000000
											CHANNELS 3 Xrotation Yrotation Zrotation
											End Site
											{
												OFFSET -1.032700 2.767982 0.617226
											}
										}
									}
								}
								JOINT LeftHandRing1
								{
									OFFSET 8.571686 -0.031357 -2.884048
									CHANNELS 3 Xrotation Yrotation Zrotation
									JOINT LeftHandRing2
									{
										OFFSET 3.671181 0.000000 0.000000
										CHANNELS 3 Xrotation Yrotation Zrotation
										JOINT LeftHandRing3
										{
											OFFSET 2.728851 0.000000 0.000000
											CHANNELS 3 Xrotation Yrotation Zrotation
											End Site
											{
												OFFSET -0.815796 2.539223 0.577389
											}
										}
									}
								}
								JOINT LeftHandPinky1
								{
									OFFSET 7.854515 -0.675232 -5.213020
									CHANNELS 3 Xrotation Yrotation Zrotation
									JOINT LeftHandPinky2
									{
										OFFSET 3.068596 0.000000 0.000000
										CHANNELS 3 Xrotation Yrotation Zrotation
										JOINT LeftHandPinky3
										{
											OFFSET 2.396042 0.000000 0.000000
											CHANNELS 3 Xrotation Yrotation Zrotation
											End Site
											{
												OFFSET -0.524597 2.267998 0.567429
											}
										}
									}
								}
							}
							JOINT LeftSleeve
							{
								OFFSET 19.684509 -0.200119 0.476146
								CHANNELS 3 Xrotation Yrotation Zrotation
								End Site
								{
									OFFSET -0.031017 25.731133 -0.002868
								}
							}
						}
					}
				}
				JOINT RightShoulder
				{
					OFFSET -4.395900 7.341202 -1.870200
					CHANNELS 3 Xrotation Yrotation Zrotation
					JOINT RightArm
					{
						OFFSET -8.071453 0.936867 -2.181100
						CHANNELS 3 Xrotation Yrotation Zrotation
						JOINT RightForeArm
						{
							OFFSET -31.272011 0.000000 0.000000
							CHANNELS 3 Xrotation Yrotation Zrotation
							JOINT RightHand
							{
								OFFSET -31.771019 0.000000 0.000000
								CHANNELS 3 Xrotation Yrotation Zrotation
								JOINT RightHandThumb1
								{
									OFFSET -2.886520 -2.557808 4.416626
									CHANNELS 3 Xrotation Yrotation Zrotation
									JOINT RightHandThumb2
									{
										OFFSET -2.371056 -1.368927 1.368928
										CHANNELS 3 Xrotation Yrotation Zrotation
										JOINT RightHandThumb3
										{
											OFFSET -2.243362 -1.295204 1.295206
											CHANNELS 3 Xrotation Yrotation Zrotation
											End Site
											{
												OFFSET 0.332642 2.876938 0.020047
											}
										}
									}
								}
								JOINT RightHandIndex1
								{
									OFFSET -8.568993 -0.641953 3.120017
									CHANNELS 3 Xrotation Yrotation Zrotation
									JOINT RightHandIndex2
									{
										OFFSET -3.348518 0.000000 0.000000
										CHANNELS 3 Xrotation Yrotation Zrotation
										JOINT RightHandIndex3
										{
											OFFSET -3.314552 0.000000 0.000000
											CHANNELS 3 Xrotation Yrotation Zrotation
											End Site
											{
												OFFSET 1.032898 3.075478 0.678804
											}
										}
									}
								}
								JOINT RightHandMiddle1
								{
									OFFSET -8.124588 0.000000 0.000000
									CHANNELS 3 Xrotation Yrotation Zrotation
									JOINT RightHandMiddle2
									{
										OFFSET -4.166275 0.000000 0.000000
										CHANNELS 3 Xrotation Yrotation Zrotation
										JOINT RightHandMiddle3
										{
											OFFSET -3.018097 0.000000 0.000000
											CHANNELS 3 Xrotation Yrotation Zrotation
											End Site
											{
												OFFSET 1.032700 2.767937 0.617197
											}
										}
									}
								}
								JOINT RightHandRing1
								{
									OFFSET -8.571747 -0.031349 -2.884061
									CHANNELS 3 Xrotation Yrotation Zrotation
									JOINT RightHandRing2
									{
										OFFSET -3.671204 0.000000 0.000000
										CHANNELS 3 Xrotation Yrotation Zrotation
										JOINT RightHandRing3
										{
											OFFSET -2.728874 0.000000 0.000000
											CHANNELS 3 Xrotation Yrotation Zrotation
											End Site
											{
												OFFSET 0.815804 2.539261 0.577413
											}
										}
									}
								}
								JOINT RightHandPinky1
								{
									OFFSET -7.854561 -0.675247 -5.212970
									CHANNELS 3 Xrotation Yrotation Zrotation
									JOINT RightHandPinky2
									{
										OFFSET -3.068550 0.000000 0.000000
										CHANNELS 3 Xrotation Yrotation Zrotation
										JOINT RightHandPinky3
										{
											OFFSET -2.395981 0.000000 0.000000
											CHANNELS 3 Xrotation Yrotation Zrotation
											End Site
											{
												OFFSET 0.524605 2.267952 0.567413
											}
										}
									}
								}
							}
							JOINT RightSleeve
							{
								OFFSET -19.684753 -0.200165 0.476065
								CHANNELS 3 Xrotation Yrotation Zrotation
								End Site
								{
									OFFSET 0.031342 25.731255 -0.002917
								}
							}
						}
					}
				}
				JOINT Hood
				{
					OFFSET 0.369700 14.447800 -5.317800
					CHANNELS 3 Xrotation Yrotation Zrotation
					JOINT Hood1
					{
						OFFSET 0.001700 -5.553802 -5.895100
						CHANNELS 3 Xrotation Yrotation Zrotation
						JOINT Hood2
						{
							OFFSET -0.000200 -8.380501 0.763600
							CHANNELS 3 Xrotation Yrotation Zrotation
							End Site
							{
								OFFSET 0.000000 8.415215 0.000000
							}
						}
					}
				}
				JOINT Left_Breast
				{
					OFFSET 5.682500 3.120102 3.188800
					CHANNELS 3 Xrotation Yrotation Zrotation
					End Site
					{
						OFFSET 0.000000 10.528564 0.000000
					}
				}
				JOINT Right_Breast
				{
					OFFSET -4.947600 3.120102 3.185900
					CHANNELS 3 Xrotation Yrotation Zrotation
					End Site
					{
						OFFSET 0.000000 10.528564 0.000000
					}
				}
				JOINT Whistle
				{
					OFFSET 0.368200 11.471298 0.095400
					CHANNELS 3 Xrotation Yrotation Zrotation
					JOINT Whistle1
					{
						OFFSET -0.002000 -6.349899 7.479800
						CHANNELS 3 Xrotation Yrotation Zrotation
						JOINT Whistle2
						{
							OFFSET -0.001300 -8.217598 4.717600
							CHANNELS 3 Xrotation Yrotation Zrotation
							End Site
							{
								OFFSET 0.000000 9.475479 0.000000
							}
						}
					}
				}
			}
		}
		JOINT Belly
		{
			OFFSET 0.212400 1.593002 3.163700
			CHANNELS 3 Xrotation Yrotation Zrotation
			End Site
			{
				OFFSET 0.000000 7.496635 0.000000
			}
		}
	}
	JOINT FitGrandmaFacialAnim_Joint
	{
		OFFSET 1.150000 -86.211197 -1.220100
		CHANNELS 3 Xrotation Yrotation Zrotation
		End Site
		{
			OFFSET 0.000000 31.666618 0.000000
		}
	}
}
MOTION
Frames: 4
Frame Time: 0.016667
-0.617129 52.315575 -2.146163 0.325346 -175.149614 -8.832648 0.000000 0.000000 -0.000000 -75.967522 -13.158587 16.489528 118.211614 5.552444 3.181742 -38.537468 5.565665 -13.665926 -0.000000 -0.000002 0.000000 0.000002 0.000003 0.000001 -0.000000 0.000000 -0.000001 -53.762898 8.774158 -27.001585 106.641451 3.084222 -0.703035 -35.071252 -10.209939 26.778416 0.000000 -0.000001 -0.000000 0.000003 -0.000002 -0.000001 -0.000000 -0.000003 0.000001 4.004519 3.402245 -2.378060 8.138434 6.853473 -4.615302 8.138447 6.853474 -4.615311 -3.924074 28.385120 6.948708 6.044258 35.632721 -22.310176 -0.000001 -0.000000 -0.000000 -0.000001 -0.000000 -0.000000 -0.000001 -0.000000 -0.000000 -0.000001 -0.000000 -0.000000 -0.000001 -0.000000 -0.000000 -0.000001 -0.000000 -0.000000 -0.000001 -0.000000 -0.000000 -0.000001 -0.000000 -0.000000 -0.000001 -0.000000 -0.000000 -0.000001 -0.000000 -0.000000 -0.000001 -0.000000 -0.000000 -0.000001 -0.000000 -0.000000 -0.000001 -0.000000 -0.000000 -0.000001 -0.000000 -0.000000 -0.000001 -0.000000 -0.000000 -0.000001 -0.000000 -0.000000 -0.000001 -0.000000 -0.000000 -0.000001 -0.000000 -0.000000 -0.000001 -0.000000 -0.000000 0.991955 -15.521564 -11.873510 2.947323 -1.004908 -32.103795 39.921937 -32.872584 -2.089490 12.741840 10.294081 2.732633 -10.171828 -9.655288 9.007727 2.321123 6.714506 2.170931 0.000001 0.000002 -0.000000 -0.823910 -6.584372 -6.418253 -0.126834 0.207654 -21.714377 0.000003 0.000001 0.000001 1.294505 -1.113041 -9.321280 -0.178463 -0.773443 -14.430105 -0.000002 -0.000000 0.000000 -0.565335 2.847726 -6.302091 -0.505480 -2.597467 -30.199500 -0.000001 0.000001 -0.000001 -0.248817 5.894621 -1.054394 -0.699262 -5.770496 -39.699320 0.000000 0.000000 0.000000 -0.000003 0.000000 -0.000000 3.297401 -18.314888 12.160854 12.768038 -13.236285 60.187074 30.213110 39.380159 -4.024303 19.052423 -1.510642 11.776117 -7.035198 1.739453 -10.279226 -0.642363 -0.093869 -1.289337 0.000000 -0.000001 0.000000 -3.340365 2.507662 5.478415 0.120533 -1.119646 16.859791 0.000002 -0.000002 0.000003 -0.189050 -1.324953 0.979402 -0.357886 1.142275 22.116026 -0.000004 -0.000000 0.000000 1.946042 0.242699 1.015182 -0.619891 3.110094 28.344716 0.000002 -0.000002 -0.000001 4.839315 -1.854590 -3.962241 -1.320421 7.677280 37.620180 -0.000000 -0.000002 0.000001 0.000000 -0.000001 0.000001 -0.000001 0.000001 0.000000 -0.000001 0.000001 0.000000 -0.000001 0.000001 0.000000 -0.000001 0.000001 0.000000 -0.000001 0.000001 0.000000 -0.000001 0.000001 0.000001 -0.000001 0.000000 -0.000000 -0.000001 0.000000 -0.000000 0.000000 -0.000000 -0.000000 0.000000 0.000000 -0.000000 
-0.621405 52.316093 -2.150993 0.294693 -175.134971 -8.848017 -0.000000 0.000000 -0.000001 -76.006290 -13.170454 16.470458 118.212051 5.556295 3.181448 -38.533332 5.563406 -13.660810 -0.000000 0.000000 -0.000000 -0.000002 0.000001 0.000000 0.000002 0.000001 0.000003 -53.770511 8.763052 -27.000047 106.632169 3.071149 -0.699156 -35.074965 -10.212470 26.780830 0.000001 0.000000 -0.000000 -0.000002 0.000001 -0.000000 0.000003 0.000003 -0.000001 3.992979 3.402082 -2.376596 8.115213 6.854063 -4.611590 8.115210 6.854068 -4.611586 -3.893993 28.384579 6.949292 6.058525 35.625925 -22.329898 -0.000000 0.000000 0.000000 -0.000000 0.000000 0.000000 -0.000000 0.000000 0.000000 -0.000000 0.000000 0.000000 -0.000000 0.000000 0.000000 -0.000000 0.000000 0.000000 -0.000000 0.000000 0.000000 -0.000000 0.000000 0.000000 -0.000000 0.000000 0.000000 -0.000000 0.000000 0.000000 -0.000000 0.000000 0.000000 -0.000000 0.000000 0.000000 -0.000000 0.000000 0.000000 -0.000000 0.000000 0.000000 -0.000000 0.000000 0.000000 -0.000000 0.000000 0.000000 -0.000000 0.000000 0.000000 -0.000000 0.000000 0.000000 -0.000000 0.000000 0.000000 0.983015 -15.541322 -11.895334 2.965901 -0.975596 -32.060898 39.955565 -32.910594 -2.104611 12.745297 10.287319 2.740128 -10.172296 -9.653895 9.008307 2.321121 6.714505 2.170931 0.000002 -0.000000 -0.000000 -0.828610 -6.612130 -6.414573 -0.126839 0.207654 -21.714377 0.000000 -0.000001 0.000002 1.294512 -1.112997 -9.320918 -0.178466 -0.773442 -14.430105 0.000001 0.000001 -0.000001 -0.564482 2.847576 -6.300928 -0.505477 -2.597465 -30.199500 0.000000 -0.000000 0.000000 -0.248491 5.894472 -1.053933 -0.699258 -5.770498 -39.699320 0.000001 0.000001 0.000000 0.000000 0.000000 -0.000000 3.299775 -18.344995 12.110439 12.768932 -13.198104 60.241401 30.218253 39.297620 -4.016856 19.086209 -1.501101 11.733837 -7.041329 1.762644 -10.274686 -0.642367 -0.093875 -1.289337 -0.000001 0.000002 0.000002 -3.280158 2.555632 5.448245 0.120537 -1.119648 16.859788 -0.000002 0.000001 0.000005 -0.085921 -1.307470 0.995291 -0.357888 1.142277 22.116028 -0.000002 -0.000000 0.000000 1.946344 0.242906 1.016091 -0.619900 3.110094 28.344716 0.000002 -0.000001 0.000001 4.839148 -1.854403 -3.961756 -1.320419 7.677281 37.620180 -0.000003 -0.000001 0.000001 -0.000004 0.000001 0.000003 0.000002 0.000001 -0.000003 0.000002 0.000001 -0.000003 0.000002 0.000001 -0.000003 0.000002 0.000001 -0.000003 0.000002 0.000001 -0.000003 0.000002 0.000001 -0.000002 -0.000001 -0.000000 0.000000 -0.000001 -0.000000 0.000000 0.000000 0.000000 -0.000001 -0.000000 0.000000 -0.000001 
-0.621556 52.316139 -2.157034 0.269626 -175.139287 -8.858363 0.000000 -0.000000 -0.000000 -76.031398 -13.172173 16.488364 118.214592 5.542264 3.180347 -38.539930 5.556481 -13.648170 -0.000000 0.000000 -0.000000 -0.000003 -0.000000 0.000000 0.000001 -0.000000 -0.000002 -53.787248 8.760988 -26.979683 106.632107 3.055913 -0.695007 -35.086241 -10.215004 26.780446 0.000000 0.000001 -0.000001 -0.000001 0.000002 0.000002 0.000002 -0.000000 -0.000001 3.982126 3.401763 -2.378909 8.093580 6.853828 -4.615534 8.093581 6.853822 -4.615524 -3.941496 28.376352 6.975598 6.129572 35.633288 -22.332419 -0.000000 -0.000000 0.000000 -0.000000 -0.000000 0.000000 -0.000000 -0.000000 0.000000 -0.000000 -0.000000 0.000000 -0.000000 -0.000000 0.000000 -0.000000 -0.000000 0.000000 -0.000000 -0.000000 0.000000 -0.000000 -0.000000 0.000000 -0.000000 -0.000000 0.000000 -0.000000 -0.000000 0.000000 -0.000000 -0.000000 0.000000 -0.000000 -0.000000 0.000000 -0.000000 -0.000000 0.000000 -0.000000 -0.000000 0.000000 -0.000000 -0.000000 0.000000 -0.000000 -0.000000 0.000000 -0.000000 -0.000000 0.000000 -0.000000 -0.000000 0.000000 -0.000000 -0.000000 0.000000 0.984357 -15.557356 -11.893246 2.993959 -0.936732 -32.027785 39.996956 -32.956011 -2.104855 12.752501 10.324080 2.750434 -10.172775 -9.652533 9.008907 2.321128 6.714508 2.170933 -0.000001 -0.000000 -0.000001 -0.833425 -6.640645 -6.410806 -0.126833 0.207654 -21.714379 0.000001 -0.000000 0.000001 1.294511 -1.112974 -9.320525 -0.178466 -0.773445 -14.430100 -0.000003 -0.000003 0.000002 -0.563583 2.847413 -6.299826 -0.505476 -2.597466 -30.199500 0.000000 0.000001 -0.000001 -0.248214 5.893933 -1.053425 -0.699264 -5.770498 -39.699313 -0.000001 -0.000001 0.000001 0.000001 0.000000 -0.000000 3.302532 -18.350053 12.097402 12.769795 -13.185346 60.268435 30.241325 39.257059 -4.029717 19.125793 -1.494302 11.725364 -7.048395 1.789103 -10.269473 -0.642362 -0.093871 -1.289340 0.000002 0.000001 -0.000002 -3.217552 2.602803 5.419788 0.120533 -1.119648 16.859791 0.000002 -0.000003 0.000003 0.019115 -1.289072 1.011202 -0.357887 1.142275 22.116019 -0.000006 0.000003 -0.000003 1.946590 0.243108 1.016875 -0.619901 3.110091 28.344722 0.000001 -0.000001 0.000001 4.838920 -1.854194 -3.961321 -1.320417 7.677284 37.620183 -0.000001 -0.000001 0.000000 0.000000 -0.000001 0.000001 0.000001 0.000001 0.000000 0.000001 0.000001 0.000000 0.000001 0.000001 0.000000 0.000001 0.000001 0.000000 0.000001 0.000001 0.000000 0.000001 0.000001 0.000001 -0.000002 -0.000002 0.000001 -0.000002 -0.000002 0.000001 0.000000 0.000000 -0.000000 0.000000 -0.000000 -0.000000 
-0.623506 52.312820 -2.163176 0.243832 -175.130886 -8.874192 -0.000000 -0.000000 0.000001 -76.071997 -13.174864 16.506578 118.224455 5.517394 3.178487 -38.545759 5.540166 -13.619816 -0.000000 -0.000000 -0.000000 -0.000001 -0.000001 -0.000000 0.000001 -0.000001 -0.000001 -53.803883 8.738446 -26.980968 106.634457 3.049791 -0.693328 -35.100042 -10.213811 26.773172 0.000000 -0.000002 -0.000000 -0.000002 0.000001 -0.000001 -0.000000 -0.000003 0.000002 3.972964 3.401439 -2.377923 8.075133 6.853914 -4.612895 8.075131 6.853914 -4.612897 -3.925080 28.376649 6.958245 6.143560 35.639579 -22.329763 -0.000001 -0.000000 0.000000 -0.000001 -0.000000 0.000000 -0.000001 -0.000000 0.000000 -0.000001 -0.000000 0.000000 -0.000001 -0.000000 0.000000 -0.000001 -0.000000 0.000000 -0.000001 -0.000000 0.000000 -0.000001 -0.000000 0.000000 -0.000001 -0.000000 0.000000 -0.000001 -0.000000 0.000000 -0.000001 -0.000000 0.000000 -0.000001 -0.000000 0.000000 -0.000001 -0.000000 0.000000 -0.000001 -0.000000 0.000000 -0.000001 -0.000000 0.000000 -0.000001 -0.000000 0.000000 -0.000001 -0.000000 0.000000 -0.000001 -0.000000 0.000000 -0.000001 -0.000000 0.000000 0.985487 -15.558940 -11.899322 3.003090 -0.913854 -31.997073 40.016562 -32.998218 -2.121957 12.751315 10.346646 2.756615 -10.173256 -9.651240 9.009517 2.321128 6.714505 2.170931 -0.000001 0.000002 0.000001 -0.838425 -6.669861 -6.406872 -0.126833 0.207653 -21.714373 -0.000001 -0.000001 0.000004 1.294508 -1.112953 -9.320133 -0.178465 -0.773443 -14.430100 0.000001 0.000000 -0.000001 -0.562649 2.847216 -6.298614 -0.505475 -2.597467 -30.199504 -0.000002 0.000002 -0.000005 -0.247937 5.893310 -1.052748 -0.699259 -5.770496 -39.699320 -0.000004 -0.000002 0.000005 0.000003 0.000000 -0.000000 3.306611 -18.371389 12.069631 12.769771 -13.150460 60.289226 30.289922 39.220271 -4.043909 19.162132 -1.502712 11.706721 -7.056320 1.818830 -10.263620 -0.642362 -0.093874 -1.289341 -0.000005 -0.000001 -0.000002 -3.152912 2.648910 5.393181 0.120533 -1.119649 16.859791 0.000006 -0.000002 0.000004 0.125415 -1.270050 1.026999 -0.357882 1.142274 22.116026 -0.000005 0.000001 -0.000003 1.946779 0.243273 1.017462 -0.619902 3.110095 28.344716 0.000004 -0.000001 0.000001 4.838700 -1.853947 -3.961032 -1.320418 7.677284 37.620187 -0.000002 0.000000 -0.000001 -0.000003 0.000000 0.000002 0.000001 0.000000 0.000002 0.000001 0.000000 0.000002 0.000001 0.000000 0.000002 0.000001 0.000000 0.000002 0.000001 0.000000 0.000002 0.000001 -0.000000 0.000002 -0.000000 -0.000000 0.000002 -0.000000 -0.000000 0.000002 -0.000000 -0.000001 -0.000000 -0.000000 -0.000000 0.000001 
